<svg width="51" height="47" fill="none" xmlns="http://www.w3.org/2000/svg"><path fill-rule="evenodd" clip-rule="evenodd" d="M45.562 16.01a5.514 5.514 0 0 1 4.849 5.467v.402a5.514 5.514 0 0 1-4.849 5.466v14.121c0 .865-.56 1.597-1.396 1.822a1.863 1.863 0 0 1-2.122-.874c-2.983-5.131-7.681-8.64-13.964-10.426-4.751-1.35-8.672-1.155-8.71-1.152-.059.003-.116 0-.173-.006H17.95l2.598 10.684a3.648 3.648 0 0 1-.68 3.134 3.648 3.648 0 0 1-2.885 1.402h-2.103a3.66 3.66 0 0 1-3.566-2.802l-3.03-12.46C3.643 30.348 0 26.43 0 21.678c0-5.047 4.106-9.153 9.153-9.153h10.046c.057-.006.114-.008.171-.005.038.002 3.959.198 8.71-1.153C34.363 9.581 39.061 6.073 42.044.941a1.867 1.867 0 0 1 2.122-.874 1.867 1.867 0 0 1 1.396 1.822V16.01Zm-27.14 26.021-.346-1.42H17.2a1.094 1.094 0 1 1 0-2.188h.343l-.542-2.228h-1.055a1.094 1.094 0 0 1 0-2.188h.523l-.772-3.177h-5.153l2.894 11.901a1.478 1.478 0 0 0 1.44 1.132h2.103c.457 0 .882-.206 1.165-.566.282-.36.382-.821.274-1.266Zm24.952-15.74V2.958c-3.278 5.098-8.362 8.73-14.77 10.535-3.547 1-6.612 1.2-8.202 1.225v13.921c1.59.026 4.654.226 8.202 1.225 6.408 1.805 11.492 5.437 14.77 10.535V26.292Zm2.188-1.159a3.325 3.325 0 0 0 2.66-3.253v-.402a3.325 3.325 0 0 0-2.66-3.254v6.91Zm-27.347 3.51v-13.93H9.153a6.973 6.973 0 0 0-6.966 6.966c0 3.83 3.108 6.947 6.935 6.964l.03-.002h7.404l.05.002h1.609Z" fill="#A8B4CA"/></svg>