<svg width="15" height="16" fill="none" xmlns="http://www.w3.org/2000/svg"><path d="M.88 12.681c.628-.416 3.964-1.755 4.313-1.725.034-.41.074-.822.11-1.238a.19.19 0 0 0-.05-.135c-.42-.402-.48-.958-.644-1.47-.03-.085-.045-.175-.075-.285-.279.08-.393-.1-.458-.326-.145-.537-.3-1.073-.41-1.62-.069-.34.076-.446.524-.41-.01-.111-.03-.216-.025-.322.04-.832.075-1.664.145-2.497.02-.24.12-.491.244-.702C5.208.873 6.134.181 7.406.031c1.59-.185 2.802.466 3.71 1.755.344.486.414 1.053.433 1.62.02.681.005 1.363.005 2.065.11-.01.18-.03.25-.02.174.015.314.1.294.296-.065.677-.22 1.334-.514 1.945-.04.086-.2.116-.374.21-.084.277-.184.648-.309 1.004a1.641 1.641 0 0 1-.279.521.618.618 0 0 0-.16.522c.04.33.07.662.105.957.175.04.33.055.464.11 1.186.492 2.373.988 3.56 1.485.1.04.19.095.289.145-3.35 4.342-10.35 4.588-14 .035Z" fill="#fff"/></svg>