<svg width="32" height="32" fill="none" xmlns="http://www.w3.org/2000/svg"><path fill="#E5E5E5" d="M0 0h32v32H0z"/><g clip-path="url(#a)"><path fill="#F6F9FC" d="M-1102-1755H98V69h-1200z"/><g filter="url(#b)"><path fill="#fff" d="M-864-123H98V69h-962z"/></g><path fill-rule="evenodd" clip-rule="evenodd" d="M22.112 12.62c-1.09-.608-3.568-.752-3.568.368 0 .446.561.752 1.237 1.12 1.025.56 2.315 1.265 2.315 2.818 0 2.48-2.62 3.393-4.357 3.393-1.736 0-2.873-.56-2.873-.56l.379-2.225c1.042.848 4.199 1.088 4.199-.256 0-.565-.621-.898-1.342-1.285-.995-.533-2.178-1.168-2.178-2.652 0-2.722 2.999-3.282 4.262-3.282 1.168 0 2.289.433 2.289.433l-.363 2.128Zm-13.5-2.383-2.426 6.817-.287-1.468-.063-.329a8.207 8.207 0 0 0-2.258-2.902c-.38-.307-.763-.57-1.133-.794l2.205 8.587h2.652l4.05-9.911h-2.74Zm3.732 0-1.59 9.911h2.544l1.59-9.911h-2.544Zm16.585 0h-2.046c-.945 0-1.175.738-1.175.738l-3.795 9.173h2.652l.531-1.472h3.235l.299 1.472h2.337l-2.038-9.911Zm-1.762 2.696-1.338 3.71h2.09l-.752-3.71Z" fill="#005BAC"/><path d="M5.364 11.402s-.106-.907-1.23-.907H.049l-.048.17s1.964.412 3.847 1.954c1.8 1.474 2.388 3.311 2.388 3.311l-.872-4.528Z" fill="#F6AC1D"/></g><defs><clipPath id="a"><path fill="#fff" transform="translate(-1102 -1755)" d="M0 0h1200v1824H0z"/></clipPath><filter id="b" x="-864" y="-123" width="962" height="192" filterUnits="userSpaceOnUse" color-interpolation-filters="sRGB"><feFlood flood-opacity="0" result="BackgroundImageFix"/><feBlend in="SourceGraphic" in2="BackgroundImageFix" result="shape"/><feColorMatrix in="SourceAlpha" values="0 0 0 0 0 0 0 0 0 0 0 0 0 0 0 0 0 0 127 0" result="hardAlpha"/><feOffset dy="1"/><feComposite in2="hardAlpha" operator="arithmetic" k2="-1" k3="1"/><feColorMatrix values="0 0 0 0 0.899607 0 0 0 0 0.899607 0 0 0 0 0.899607 0 0 0 1 0"/><feBlend in2="shape" result="effect1_innerShadow_9_388"/></filter></defs></svg>