<svg width="24" height="24" fill="none" xmlns="http://www.w3.org/2000/svg"><path fill-rule="evenodd" clip-rule="evenodd" d="M12 24c6.627 0 12-5.373 12-12S18.627 0 12 0 0 5.373 0 12s5.373 12 12 12Z" fill="#0483BF"/><path fill-rule="evenodd" clip-rule="evenodd" d="M7.14 16.972h2.433V9.665H7.141v7.307Zm10.418-6.638c-.512-.559-1.187-.837-2.027-.837-.31 0-.591.037-.845.113-.232.066-.45.175-.642.321a3.195 3.195 0 0 0-.416.384 3.126 3.126 0 0 0-.287.39v-1.04h-2.427l.008.354c.004.236.007.963.007 2.182 0 1.219-.005 2.81-.015 4.77h2.426v-4.076c0-.25.027-.45.08-.597.104-.25.26-.461.47-.63.208-.17.467-.255.777-.255.422 0 .733.146.932.438.2.293.299.697.299 1.213v3.908h2.426v-4.187c0-1.077-.256-1.895-.766-2.451ZM8.372 6.15c-.408 0-.738.118-.993.357-.25.232-.388.561-.379.903 0 .359.123.659.37.9.244.24.57.36.973.36h.013c.414 0 .746-.12 1-.36.253-.241.377-.541.372-.9a1.23 1.23 0 0 0-.376-.902c-.245-.24-.572-.358-.98-.358Z" fill="#fff"/></svg>