<svg width="24" height="15" fill="none" xmlns="http://www.w3.org/2000/svg"><path d="M8.63 1.638h6.394v11.708H8.63V1.638Z" fill="#FF5F00"/><path d="M9.037 7.492a7.476 7.476 0 0 1 2.79-5.854 7.174 7.174 0 0 0-4.51-1.6C3.272.038 0 3.369 0 7.492c0 4.103 3.27 7.454 7.318 7.454 1.7 0 3.27-.602 4.509-1.6a7.504 7.504 0 0 1-2.79-5.854Z" fill="#EB001B"/><path fill-rule="evenodd" clip-rule="evenodd" d="M23.654 7.492c0 4.103-3.27 7.454-7.318 7.454-1.7 0-3.27-.602-4.509-1.6a7.475 7.475 0 0 0 2.79-5.854 7.475 7.475 0 0 0-2.79-5.854 7.174 7.174 0 0 1 4.51-1.6c4.046 0 7.317 3.331 7.317 7.454Zm-.702 4.612v-.245h.092v-.057h-.24v.057h.092v.245h.056Zm.48-.283v.283h-.074v-.226l-.073.188h-.056l-.074-.188v.226H23.1v-.283h.074l.092.207.092-.207h.074Z" fill="#F79E1B"/></svg>