<svg width="16" height="16" fill="none" xmlns="http://www.w3.org/2000/svg"><path d="M13.697 5.216v4.675c.877-.3 1.503-1.242 1.503-2.338 0-1.095-.626-2.038-1.503-2.337ZM12.259 1.6c-.422 0-.695.273-.695.695-1.044 1.47-3.056 2.522-5.407 2.964v4.589c2.352.442 4.363 1.493 5.407 2.963 0 .423.273.695.695.695.422 0 .694-.273.694-.694V2.295c0-.422-.272-.694-.694-.694ZM5.364 9.81V5.296H2.983C1.656 5.296.8 6.153.8 7.48v.149c0 1.326.856 2.182 2.183 2.182h2.38ZM5.068 10.505H2.816l.777 3.062c.163.643.684.952 1.326.79.643-.163.953-.684.79-1.327l-.64-2.525Z" fill="#fff"/></svg>