<svg xmlns="http://www.w3.org/2000/svg" xmlns:xlink="http://www.w3.org/1999/xlink"><defs>
<filter id="filter0_i_9_388" x="-864" y="-123" width="962" height="192" filterUnits="userSpaceOnUse" color-interpolation-filters="sRGB">
<feFlood flood-opacity="0" result="BackgroundImageFix"/>
<feBlend mode="normal" in="SourceGraphic" in2="BackgroundImageFix" result="shape"/>
<feColorMatrix in="SourceAlpha" type="matrix" values="0 0 0 0 0 0 0 0 0 0 0 0 0 0 0 0 0 0 127 0" result="hardAlpha"/>
<feOffset dy="1"/>
<feComposite in2="hardAlpha" operator="arithmetic" k2="-1" k3="1"/>
<feColorMatrix type="matrix" values="0 0 0 0 0.899607 0 0 0 0 0.899607 0 0 0 0 0.899607 0 0 0 1 0"/>
<feBlend mode="normal" in2="shape" result="effect1_innerShadow_9_388"/>
</filter>
<clipPath id="clip0_9_388">
<rect width="1200" height="1824" fill="white" transform="translate(-1102 -1755)"/>
</clipPath>
</defs><symbol id="call" viewBox="0 0 51 47">
<path fill-rule="evenodd" clip-rule="evenodd" d="M45.562 16.0104C48.2891 16.3371 50.4105 18.663 50.4105 21.4766V21.8787C50.4105 24.6922 48.2891 27.0182 45.562 27.3448V41.4664C45.562 42.331 45.0011 43.0631 44.1663 43.2881C43.998 43.3333 43.829 43.3553 43.6627 43.3553C43.0047 43.3553 42.3912 43.0113 42.0444 42.4145C39.0613 37.2825 34.363 33.7746 28.08 31.9882C23.3288 30.6373 19.4083 30.8333 19.3693 30.8355C19.3114 30.8388 19.2539 30.836 19.1971 30.8302H17.9488L20.547 41.5142C20.8146 42.6152 20.5667 43.7576 19.8664 44.6485C19.1662 45.5393 18.1148 46.0502 16.9818 46.0502H14.8787C13.1808 46.0502 11.7147 44.898 11.3135 43.2481L8.28341 30.7879C3.64295 30.3486 0 26.4312 0 21.6776C0 16.6309 4.10594 12.5249 9.15272 12.5249H19.1989C19.2556 12.5192 19.3128 12.5165 19.3703 12.5198C19.4082 12.5221 23.3288 12.7179 28.08 11.3671C34.3631 9.58066 39.0614 6.07278 42.0444 0.940688C42.4788 0.193329 43.3316 -0.157546 44.1663 0.0672196C45.0011 0.292204 45.562 1.02436 45.562 1.88897V16.0104ZM18.4213 42.0311L18.0758 40.6101H17.201C16.5969 40.6101 16.1072 40.1205 16.1072 39.5164C16.1072 38.9123 16.5969 38.4226 17.201 38.4226H17.5437L17.0019 36.1947H15.9472C15.3431 36.1947 14.8535 35.705 14.8535 35.1009C14.8535 34.4968 15.3431 34.0072 15.9472 34.0072H16.47L15.6975 30.8304H10.545L13.4391 42.7313C13.6011 43.3975 14.193 43.8628 14.8787 43.8628H16.9818C17.4393 43.8628 17.8639 43.6565 18.1465 43.2968C18.4294 42.9371 18.5294 42.4757 18.4213 42.0311ZM43.3743 26.2918V17.0634V2.95745C40.0965 8.05499 35.0121 11.6869 28.6043 13.492C25.0566 14.4914 21.9919 14.6911 20.402 14.717V25.0952V28.6383C21.9917 28.6642 25.0563 28.8638 28.6043 29.8633C35.0122 31.6683 40.0965 35.3003 43.3743 40.3978V26.2918ZM45.5618 25.1325C47.078 24.8262 48.2228 23.4836 48.2228 21.8787V21.4766C48.2228 19.8716 47.0778 18.5291 45.5618 18.2228V25.1325ZM18.2145 28.6429V26V24.0014V14.7124H9.15272C5.31212 14.7124 2.1875 17.837 2.1875 21.6776C2.1875 25.5078 5.29539 28.6251 9.12166 28.6421C9.13205 28.6419 9.14233 28.6403 9.15272 28.6403H16.5564C16.5729 28.6403 16.5891 28.6413 16.6053 28.6422C16.6091 28.6424 16.6129 28.6427 16.6167 28.6429H18.2145Z" fill="#A8B4CA"/>
</symbol><symbol id="Group" viewBox="0 0 15 16">
<path d="M0.879883 12.6812C1.50809 12.2651 4.84356 10.9263 5.19256 10.9564C5.22746 10.5453 5.26735 10.1341 5.30225 9.71799C5.30723 9.67286 5.2823 9.6127 5.25239 9.58261C4.83359 9.1815 4.77376 8.62496 4.60923 8.11354C4.57931 8.0283 4.56436 7.93805 4.53444 7.82774C4.25524 7.90796 4.14057 7.72746 4.07575 7.50184C3.93116 6.96535 3.77661 6.42886 3.66692 5.88234C3.59712 5.5414 3.74171 5.4361 4.19042 5.4712C4.18045 5.3609 4.16051 5.2556 4.1655 5.15031C4.20538 4.318 4.24028 3.48569 4.31008 2.65338C4.33003 2.41271 4.42974 2.16202 4.55438 1.95143C5.20752 0.873443 6.13487 0.181522 7.40624 0.0311048C8.99669 -0.15441 10.2082 0.497399 11.1156 1.78597C11.4597 2.27232 11.5295 2.8389 11.5494 3.40547C11.5693 4.08736 11.5544 4.76925 11.5544 5.4712C11.6641 5.46117 11.7339 5.44112 11.8037 5.45115C11.9782 5.46619 12.1178 5.55142 12.0978 5.74697C12.033 6.42385 11.8785 7.08067 11.5843 7.69237C11.5444 7.7776 11.3849 7.80769 11.2104 7.90295C11.1256 8.17872 11.0259 8.54975 10.9013 8.90573C10.8364 9.09125 10.7467 9.28178 10.622 9.42718C10.4824 9.58763 10.4376 9.74807 10.4625 9.94863C10.5024 10.2795 10.5323 10.6105 10.5672 10.9063C10.7417 10.9464 10.8963 10.9614 11.0309 11.0166C12.2175 11.508 13.4041 12.0043 14.5907 12.5007C14.6904 12.5408 14.7802 12.596 14.8799 12.6461C11.5295 16.9882 4.52946 17.2338 0.879883 12.6812Z" fill="white"/>
</symbol><symbol id="i-extensions" viewBox="0 0 16 16">
<path fill-rule="evenodd" clip-rule="evenodd" d="M7 0H0V3V13V13.0037V16H7V13H3V3H7V0ZM16 0H9V3H13V13H9V16H16V13V3V0Z" fill="#1A1A1A"/>
</symbol><symbol id="i-facebook" viewBox="0 0 24 24">
<path fill-rule="evenodd" clip-rule="evenodd" d="M12 24C18.6274 24 24 18.6274 24 12C24 5.37258 18.6274 0 12 0C5.37258 0 0 5.37258 0 12C0 18.6274 5.37258 24 12 24Z" fill="#3B5997"/>
<path d="M9.94636 7.94701V9.55001H8.69336V11.517H9.94636V17.341H12.5294V11.517H14.2584C14.2584 11.517 14.4194 10.572 14.4964 9.54301H12.5364V8.20601C12.5912 7.93738 12.8224 7.7409 13.0964 7.73001H14.5034V5.69301H12.5924C9.88336 5.68601 9.94636 7.65301 9.94636 7.94701Z" fill="white"/>
</symbol><symbol id="i-visa_icon" viewBox="0 0 32 32">
<rect width="32" height="32" fill="#E5E5E5"/>
<g id="Notification_05" clip-path="url(#clip0_9_388)">
<rect width="1200" height="1824" transform="translate(-1102 -1755)" fill="#F6F9FC"/>
<g id="Templates/Footer/Desktop">
<g id="-" filter="url(#filter0_i_9_388)">
<rect x="-864" y="-123" width="962" height="192" fill="white"/>
</g>
<g id="-_2">
<g id="i-visa_icon">
<g id="i-visa_icon_2">
<g id="&#xE5;&#xBD;&#xA2;&#xE7;&#x160;&#xB6;_1_3_">
<g id="&#xE5;&#xBD;&#xA2;&#xE7;&#x160;&#xB6;_1">
<path id="Shape" fill-rule="evenodd" clip-rule="evenodd" d="M22.1118 12.6202C21.0228 12.0118 18.5443 11.8678 18.5443 12.9884C18.5443 13.4335 19.1051 13.7397 19.781 14.1087C20.8061 14.6684 22.096 15.3726 22.096 16.9256C22.096 19.4067 19.4756 20.3189 17.7392 20.3189C16.0026 20.3189 14.8662 19.7588 14.8662 19.7588L15.2449 17.5338C16.2868 18.382 19.4439 18.6222 19.4439 17.2777C19.4439 16.7128 18.8225 16.3797 18.1019 15.9933C17.1074 15.46 15.9239 14.8254 15.9239 13.3405C15.9239 10.6193 18.9229 10.0593 20.186 10.0593C21.3542 10.0593 22.475 10.4915 22.475 10.4915L22.1118 12.6202ZM8.61209 10.2367L6.18572 17.0538L5.89871 15.5858L5.89892 15.5863L5.83567 15.2573C5.54202 14.6156 4.86191 13.3961 3.57769 12.3553C3.19802 12.0476 2.81529 11.7851 2.44531 11.5608L4.65049 20.1483H7.30204L11.3512 10.2367H8.61209ZM12.3439 10.2367L10.7533 20.1483H13.2981L14.8889 10.2367H12.3439ZM28.9292 10.2367H26.8831C25.9383 10.2367 25.7082 10.9754 25.7082 10.9754L21.913 20.1483H24.5655L25.0962 18.6761H28.3315L28.63 20.1483H30.9667L28.9292 10.2367ZM27.1668 12.933L25.8295 16.6422H27.9191L27.1668 12.933Z" fill="#005BAC"/>
</g>
</g>
<g id="&#xE5;&#xBD;&#xA2;&#xE7;&#x160;&#xB6;_1_2_">
<g id="&#xE5;&#xBD;&#xA2;&#xE7;&#x160;&#xB6;_1_1_">
<path id="Shape_2" d="M5.3635 11.4017C5.3635 11.4017 5.25818 10.4946 4.1338 10.4946H0.0488254L0.000976562 10.6651C0.000976562 10.6651 1.96454 11.0767 3.84833 12.6189C5.64856 14.0928 6.23583 15.9302 6.23583 15.9302L5.3635 11.4017Z" fill="#F6AC1D"/>
</g>
</g>
</g>
</g>
</g>
</g>
</g>

</symbol><symbol id="i-youscore_logo" viewBox="0 0 16 16">
<path fill-rule="evenodd" clip-rule="evenodd" d="M0.479438 0C0.0794375 0 -0.120562 0.4 0.0794375 0.8L3.37944 5.7L7.27944 0H0.479438ZM11.4784 0L5.77844 8.2V12.4424L9.17844 15.7V9.4C9.17844 9.3 9.17844 9.2 9.27844 9.1L15.0784 0.8C15.3784 0.5 15.1784 0 14.7784 0H11.4784Z" fill="#1A1A1A"/>
</symbol><symbol id="i-youtube" viewBox="0 0 24 24">
<path fill-rule="evenodd" clip-rule="evenodd" d="M12 24C18.6274 24 24 18.6274 24 12C24 5.37258 18.6274 0 12 0C5.37258 0 0 5.37258 0 12C0 18.6274 5.37258 24 12 24Z" fill="#CD201F"/>
<path d="M9 7V16.7552L17.5414 11.99L9 7Z" fill="white"/>
</symbol><symbol id="linkedin" viewBox="0 0 24 24">
<path fill-rule="evenodd" clip-rule="evenodd" d="M12 24C18.6274 24 24 18.6274 24 12C24 5.37258 18.6274 0 12 0C5.37258 0 0 5.37258 0 12C0 18.6274 5.37258 24 12 24Z" fill="#0483BF"/>
<path fill-rule="evenodd" clip-rule="evenodd" d="M7.14076 16.9717H9.57307V9.66461H7.14076V16.9717ZM17.5577 10.3338C17.0463 9.77538 16.3706 9.49661 15.5306 9.49661C15.2205 9.49661 14.9398 9.53446 14.686 9.61015C14.4539 9.67609 14.2363 9.78506 14.0445 9.93138C13.87 10.0698 13.7306 10.1972 13.6281 10.3145C13.5303 10.4262 13.4343 10.5572 13.3411 10.7049V9.66461H10.9143L10.9217 10.0191C10.9263 10.2545 10.9291 10.9818 10.9291 12.2012C10.9291 13.4197 10.9235 15.0102 10.9143 16.9708H13.3401V12.8945C13.3401 12.6443 13.3669 12.4449 13.4205 12.2982C13.5238 12.0471 13.6798 11.8366 13.8894 11.6677C14.098 11.4978 14.3574 11.4129 14.6666 11.4129C15.0894 11.4129 15.4005 11.5588 15.5989 11.8514C15.7983 12.144 15.898 12.5483 15.898 13.0643V16.9717H18.3238V12.7846C18.3238 11.7083 18.0681 10.8905 17.5577 10.3338ZM8.37215 6.14954C7.96415 6.14954 7.63369 6.26769 7.37892 6.50677C7.12889 6.73932 6.99101 7.06821 7.00046 7.40954C7.00046 7.76861 7.12322 8.06861 7.36969 8.30954C7.6143 8.54954 7.93922 8.66954 8.34261 8.66954H8.35646C8.76999 8.66954 9.1023 8.54954 9.35615 8.30954C9.60907 8.06861 9.73276 7.76861 9.72815 7.40954C9.73285 7.06993 9.59687 6.74351 9.35246 6.50769C9.10692 6.26769 8.78015 6.14954 8.37215 6.14954Z" fill="white"/>
</symbol><symbol id="master-card-icon" viewBox="0 0 24 15">
<path d="M8.62988 1.63757H15.0238V13.3458H8.62988V1.63757Z" fill="#FF5F00"/>
<path d="M9.03651 7.49172C9.03651 5.11995 10.1268 2.99289 11.8269 1.6376C10.5888 0.639951 9.01803 0.0375977 7.31791 0.0375977C3.27088 0.0375977 0 3.36936 0 7.49172C0 11.5952 3.27088 14.9458 7.31791 14.9458C9.01803 14.9458 10.5888 14.3435 11.8269 13.3458C10.1268 11.9717 9.03651 9.86348 9.03651 7.49172Z" fill="#EB001B"/>
<path fill-rule="evenodd" clip-rule="evenodd" d="M23.6541 7.49172C23.6541 11.5952 20.3832 14.9458 16.3362 14.9458C14.636 14.9458 13.0653 14.3435 11.8271 13.3458C13.5273 11.9905 14.6176 9.86348 14.6176 7.49172C14.6176 5.11995 13.5273 2.99289 11.8271 1.6376C13.0653 0.639951 14.636 0.0375977 16.3362 0.0375977C20.3832 0.0375977 23.6541 3.36936 23.6541 7.49172ZM22.9518 12.1035V11.8588H23.0442V11.8023H22.804V11.8588H22.8964V12.1035H22.9518ZM23.4323 11.8211V12.1035H23.3584V11.8776L23.2845 12.0658H23.229L23.1551 11.8776V12.1035H23.0997V11.8211H23.1736L23.266 12.0282L23.3584 11.8211H23.4323Z" fill="#F79E1B"/>
</symbol><symbol id="noun_loudspeaker_1822850" viewBox="0 0 16 16">
<path d="M13.6973 5.21619V9.89059C14.5737 9.59155 15.1998 8.64915 15.1998 7.55331C15.1998 6.45763 14.5737 5.51539 13.6973 5.21619Z" fill="white"/>
<path d="M12.2588 1.60065C11.8369 1.60065 11.5641 1.87313 11.5641 2.29505C10.5204 3.76529 8.50843 4.81697 6.15723 5.25857V9.84801C8.50859 10.2898 10.5204 11.3413 11.5641 12.8115C11.5641 13.2336 11.8369 13.5059 12.2588 13.5059C12.6807 13.5059 12.9532 13.2334 12.9532 12.8115V2.29521C12.9532 1.87329 12.6807 1.60065 12.2588 1.60065Z" fill="white"/>
<path d="M5.36364 9.81018V5.29626H2.98252C1.65644 5.29626 0.799805 6.1529 0.799805 7.47882V7.62762C0.799805 8.9537 1.65644 9.81034 2.98252 9.81034H5.36364V9.81018Z" fill="white"/>
<path d="M5.06825 10.505H2.81641L3.59305 13.5669C3.75609 14.2098 4.27657 14.5194 4.91929 14.3567C5.56201 14.1935 5.87193 13.6732 5.70889 13.0304L5.06825 10.505Z" fill="white"/>
</symbol><symbol id="telegram" viewBox="0 0 24 24">
<path fill-rule="evenodd" clip-rule="evenodd" d="M12 24C18.6274 24 24 18.6274 24 12C24 5.37258 18.6274 0 12 0C5.37258 0 0 5.37258 0 12C0 18.6274 5.37258 24 12 24Z" fill="#31ACE0"/>
<path fill-rule="evenodd" clip-rule="evenodd" d="M7.977 13.1386L5.21196 12.09C4.93112 11.9831 4.92868 11.5803 5.20872 11.4706L16.5565 7.02278C16.7971 6.92825 17.0453 7.14238 16.9929 7.39907L14.9565 17.3516C14.9085 17.5866 14.6373 17.6932 14.4459 17.5518L11.666 15.5012C11.4972 15.3767 11.267 15.3834 11.1055 15.5171L9.5642 16.7937C9.38528 16.9423 9.11572 16.8596 9.04724 16.6356L7.977 13.1386ZM14.2787 9.19881L8.87476 12.5804C8.66764 12.7103 8.57012 12.9644 8.63704 13.2023L9.22132 15.2882C9.2628 15.436 9.47396 15.4209 9.49408 15.2682L9.646 14.1243C9.67464 13.9089 9.77576 13.7105 9.93252 13.5623L14.3923 9.35024C14.4757 9.27164 14.3758 9.13821 14.2787 9.19881Z" fill="white"/>
</symbol></svg>