<svg width="24" height="24" fill="none" xmlns="http://www.w3.org/2000/svg"><path fill-rule="evenodd" clip-rule="evenodd" d="M12 24c6.627 0 12-5.373 12-12S18.627 0 12 0 0 5.373 0 12s5.373 12 12 12Z" fill="#31ACE0"/><path fill-rule="evenodd" clip-rule="evenodd" d="M7.977 13.139 5.212 12.09a.333.333 0 0 1-.003-.62l11.348-4.447c.24-.095.488.12.436.376l-2.036 9.953a.324.324 0 0 1-.511.2l-2.78-2.05a.454.454 0 0 0-.56.015l-1.542 1.277a.324.324 0 0 1-.517-.158l-1.07-3.497Zm6.302-3.94L8.875 12.58a.557.557 0 0 0-.238.622l.584 2.086c.042.148.253.133.273-.02l.152-1.144a.944.944 0 0 1 .287-.562l4.46-4.212c.083-.078-.017-.212-.114-.151Z" fill="#fff"/></svg>